<svg width="226" height="32" viewBox="0 0 226 32" fill="none" xmlns="http://www.w3.org/2000/svg">
<path d="M27.0635 1.5L5 24.5H37.3704V14.3835H30.6803C29.7211 14.3835 28.8012 14.0064 28.123 13.3353C27.4447 12.6642 27.0636 11.754 27.0635 10.8048V1.5Z" fill="url(#paint0_linear_1126_4599)"/>
<path d="M37.3704 14.384V24.4997H5L23.7994 4.90283V10.8046C23.7994 11.7539 24.1805 12.6643 24.8589 13.3356C25.5372 14.0069 26.4573 14.384 27.4166 14.384H37.3704Z" fill="url(#paint1_linear_1126_4599)"/>
<path d="M37.3704 14.3838V24.4995H5L20.6908 8.14307V10.8043C20.6908 11.7536 21.0719 12.664 21.7501 13.3352C22.4284 14.0065 23.3483 14.3837 24.3076 14.3838H37.3704Z" fill="url(#paint2_linear_1126_4599)"/>
<path d="M53.2744 23.764C52.2344 23.764 51.2664 23.644 50.3704 23.404C49.4744 23.164 48.7304 22.836 48.1384 22.42L49.0024 20.068C49.5944 20.436 50.2664 20.732 51.0184 20.956C51.7864 21.164 52.5464 21.268 53.2984 21.268C53.9704 21.268 54.4664 21.164 54.7864 20.956C55.1064 20.732 55.2664 20.444 55.2664 20.092C55.2664 19.532 54.8584 19.18 54.0424 19.036L51.5224 18.58C50.5144 18.404 49.7464 18.044 49.2184 17.5C48.6904 16.956 48.4264 16.244 48.4264 15.364C48.4264 14.564 48.6504 13.876 49.0984 13.3C49.5464 12.724 50.1624 12.276 50.9464 11.956C51.7304 11.636 52.6344 11.476 53.6584 11.476C54.5064 11.476 55.3304 11.588 56.1304 11.812C56.9304 12.02 57.6184 12.356 58.1944 12.82L57.2824 15.148C56.8024 14.796 56.2264 14.508 55.5544 14.284C54.8984 14.06 54.2824 13.948 53.7064 13.948C52.9864 13.948 52.4664 14.068 52.1464 14.308C51.8264 14.532 51.6664 14.82 51.6664 15.172C51.6664 15.732 52.0424 16.084 52.7944 16.228L55.3144 16.684C56.3544 16.86 57.1464 17.212 57.6904 17.74C58.2344 18.252 58.5064 18.956 58.5064 19.852C58.5064 21.084 58.0264 22.044 57.0664 22.732C56.1064 23.42 54.8424 23.764 53.2744 23.764ZM66.4789 23.764C65.2149 23.764 64.1109 23.516 63.1669 23.02C62.2389 22.508 61.5189 21.796 61.0069 20.884C60.4949 19.956 60.2389 18.86 60.2389 17.596C60.2389 16.348 60.4949 15.268 61.0069 14.356C61.5189 13.428 62.2389 12.716 63.1669 12.22C64.1109 11.724 65.2149 11.476 66.4789 11.476C67.7429 11.476 68.8389 11.724 69.7669 12.22C70.7109 12.716 71.4389 13.428 71.9509 14.356C72.4789 15.268 72.7429 16.348 72.7429 17.596C72.7429 18.86 72.4789 19.956 71.9509 20.884C71.4389 21.796 70.7109 22.508 69.7669 23.02C68.8389 23.516 67.7429 23.764 66.4789 23.764ZM66.4789 21.052C67.2469 21.052 67.8709 20.772 68.3509 20.212C68.8469 19.652 69.0949 18.78 69.0949 17.596C69.0949 16.428 68.8469 15.572 68.3509 15.028C67.8709 14.468 67.2469 14.188 66.4789 14.188C65.7109 14.188 65.0869 14.468 64.6069 15.028C64.1269 15.572 63.8869 16.428 63.8869 17.596C63.8869 18.78 64.1269 19.652 64.6069 20.212C65.0869 20.772 65.7109 21.052 66.4789 21.052ZM75.1877 23.5V11.716H78.7397V13.756C79.2997 12.38 80.4997 11.62 82.3397 11.476L83.3957 11.404L83.6117 14.452L81.5717 14.668C79.7797 14.844 78.8837 15.756 78.8837 17.404V23.5H75.1877ZM91.8054 23.764C88.4934 23.764 86.8374 22.156 86.8374 18.94V14.428H84.6054V11.716H86.8374V8.26H90.4614V11.716H93.9414V14.428H90.4614V18.796C90.4614 19.468 90.6134 19.972 90.9174 20.308C91.2374 20.644 91.7414 20.812 92.4294 20.812C92.6374 20.812 92.8534 20.788 93.0774 20.74C93.3174 20.692 93.5734 20.628 93.8454 20.548L94.3734 23.188C94.0374 23.364 93.6374 23.5 93.1734 23.596C92.7094 23.708 92.2534 23.764 91.8054 23.764ZM101.967 23.764C100.575 23.764 99.3754 23.516 98.3674 23.02C97.3754 22.508 96.6074 21.796 96.0634 20.884C95.5354 19.956 95.2714 18.868 95.2714 17.62C95.2714 16.404 95.5274 15.34 96.0394 14.428C96.5674 13.5 97.2794 12.78 98.1754 12.268C99.0874 11.74 100.135 11.476 101.319 11.476C103.031 11.476 104.391 12.02 105.399 13.108C106.407 14.18 106.911 15.636 106.911 17.476V18.388H98.7274C98.8554 19.316 99.1914 19.996 99.7354 20.428C100.295 20.844 101.063 21.052 102.039 21.052C102.679 21.052 103.327 20.956 103.983 20.764C104.639 20.572 105.231 20.276 105.759 19.876L106.719 22.3C106.127 22.748 105.399 23.108 104.535 23.38C103.687 23.636 102.831 23.764 101.967 23.764ZM101.463 13.876C100.695 13.876 100.071 14.108 99.5914 14.572C99.1274 15.036 98.8394 15.684 98.7274 16.516H103.911C103.815 14.756 102.999 13.876 101.463 13.876ZM114.995 23.764C113.715 23.764 112.595 23.516 111.635 23.02C110.691 22.508 109.963 21.788 109.451 20.86C108.939 19.932 108.683 18.836 108.683 17.572C108.683 16.308 108.939 15.22 109.451 14.308C109.963 13.396 110.691 12.7 111.635 12.22C112.595 11.724 113.715 11.476 114.995 11.476C115.747 11.476 116.507 11.588 117.275 11.812C118.043 12.036 118.667 12.356 119.147 12.772L118.139 15.268C117.739 14.948 117.291 14.7 116.795 14.524C116.299 14.332 115.819 14.236 115.355 14.236C114.411 14.236 113.675 14.532 113.147 15.124C112.635 15.7 112.379 16.524 112.379 17.596C112.379 18.652 112.635 19.484 113.147 20.092C113.675 20.684 114.411 20.98 115.355 20.98C115.803 20.98 116.275 20.892 116.771 20.716C117.283 20.54 117.739 20.284 118.139 19.948L119.147 22.444C118.667 22.86 118.043 23.188 117.275 23.428C116.507 23.652 115.747 23.764 114.995 23.764ZM126.39 23.764C125.126 23.764 124.022 23.516 123.078 23.02C122.15 22.508 121.43 21.796 120.918 20.884C120.406 19.956 120.15 18.86 120.15 17.596C120.15 16.348 120.406 15.268 120.918 14.356C121.43 13.428 122.15 12.716 123.078 12.22C124.022 11.724 125.126 11.476 126.39 11.476C127.654 11.476 128.75 11.724 129.678 12.22C130.622 12.716 131.35 13.428 131.862 14.356C132.39 15.268 132.654 16.348 132.654 17.596C132.654 18.86 132.39 19.956 131.862 20.884C131.35 21.796 130.622 22.508 129.678 23.02C128.75 23.516 127.654 23.764 126.39 23.764ZM126.39 21.052C127.158 21.052 127.782 20.772 128.262 20.212C128.758 19.652 129.006 18.78 129.006 17.596C129.006 16.428 128.758 15.572 128.262 15.028C127.782 14.468 127.158 14.188 126.39 14.188C125.622 14.188 124.998 14.468 124.518 15.028C124.038 15.572 123.798 16.428 123.798 17.596C123.798 18.78 124.038 19.652 124.518 20.212C124.998 20.772 125.622 21.052 126.39 21.052ZM135.147 23.5V11.716H138.699V13.42C139.051 12.812 139.531 12.34 140.139 12.004C140.763 11.652 141.483 11.476 142.299 11.476C143.131 11.476 143.835 11.66 144.411 12.028C145.003 12.396 145.451 12.956 145.755 13.708C146.123 13.004 146.651 12.46 147.339 12.076C148.043 11.676 148.819 11.476 149.667 11.476C151.011 11.476 152.011 11.884 152.667 12.7C153.323 13.5 153.651 14.74 153.651 16.42V23.5H150.027V16.54C150.027 15.756 149.899 15.188 149.643 14.836C149.403 14.468 148.987 14.284 148.395 14.284C147.707 14.284 147.171 14.524 146.787 15.004C146.403 15.484 146.211 16.164 146.211 17.044V23.5H142.587V16.54C142.587 15.756 142.459 15.188 142.203 14.836C141.947 14.468 141.531 14.284 140.955 14.284C140.267 14.284 139.731 14.524 139.347 15.004C138.963 15.484 138.771 16.164 138.771 17.044V23.5H135.147Z" fill="#004AF7"/>
<defs>
<linearGradient id="paint0_linear_1126_4599" x1="21.962" y1="14.1617" x2="27.646" y2="13.504" gradientUnits="userSpaceOnUse">
<stop stop-color="#004AF7"/>
<stop offset="1" stop-color="#00D0FF"/>
</linearGradient>
<linearGradient id="paint1_linear_1126_4599" x1="17.5343" y1="14.7222" x2="23.9577" y2="14.7661" gradientUnits="userSpaceOnUse">
<stop stop-color="#004AF7"/>
<stop offset="1" stop-color="#00D0FF"/>
</linearGradient>
<linearGradient id="paint2_linear_1126_4599" x1="25.2042" y1="30.978" x2="18.9636" y2="12.685" gradientUnits="userSpaceOnUse">
<stop stop-color="#004AF7"/>
<stop offset="1" stop-color="#00D0FF"/>
</linearGradient>
</defs>
</svg>
