<svg width="24" height="24" viewBox="0 0 24 24" fill="none" xmlns="http://www.w3.org/2000/svg">
<path d="M5.88361 15.6463V15.6463C4.7988 15.8543 3.75076 15.1435 3.54275 14.0587L2.52729 8.76297C2.23608 7.24424 3.23077 5.77706 4.74949 5.48585C6.33498 5.18183 8.31354 4.80244 9.85686 4.50651C11.4243 4.20595 13.447 3.85274 15.0509 3.57911C16.5465 3.32393 17.9659 4.31512 18.2516 5.80521C18.2955 6.03419 18.3402 6.26732 18.3849 6.49995" stroke="#1D1B29" stroke-width="1.5" stroke-linecap="round"/>
<path d="M6 9.80001V17C6 18.1046 6.89543 19 8 19H8.24257C8.66089 19 9 19.3391 9 19.7574C9 20.5821 9.0696 21.802 9.89389 21.7789C10.4531 21.7632 10.653 21.0796 10.9572 20.6101L11.1723 20.2778C11.6884 19.481 12.5731 19 13.5224 19H19.2C20.7464 19 22 17.7466 22 16.2002V9.86662C22 8.35454 21.0116 7.03647 19.5 7C17.8712 6.9607 15.6003 7.00001 14 7.00001H8.79958C7.25319 7.00001 6 8.25361 6 9.80001Z" stroke="#1D1B29" stroke-width="1.5" stroke-linecap="round"/>
<circle cx="10" cy="13" r="1" fill="#1D1B29"/>
<circle cx="14" cy="13" r="1" fill="#1D1B29"/>
<circle cx="18" cy="13" r="1" fill="#1D1B29"/>
</svg>
