<svg width="151" height="31" viewBox="0 0 151 31" fill="none" xmlns="http://www.w3.org/2000/svg">
<path d="M27.0635 0.5L5 23.5H37.3704V13.3835H30.6803C29.7211 13.3835 28.8012 13.0064 28.123 12.3353C27.4447 11.6642 27.0636 10.754 27.0635 9.80483V0.5Z" fill="url(#paint0_linear_616_3907)"/>
<path d="M37.3704 13.384V23.4997H5L23.7994 3.90283V9.80455C23.7994 10.7539 24.1805 11.6643 24.8589 12.3356C25.5372 13.0069 26.4573 13.384 27.4166 13.384H37.3704Z" fill="url(#paint1_linear_616_3907)"/>
<path d="M37.3704 13.3838V23.4995H5L20.6908 7.14307V9.80434C20.6908 10.7536 21.0719 11.664 21.7501 12.3352C22.4284 13.0065 23.3483 13.3837 24.3076 13.3838H37.3704Z" fill="url(#paint2_linear_616_3907)"/>
<path d="M57.2904 23.72C56.4237 23.72 55.617 23.62 54.8704 23.42C54.1237 23.22 53.5037 22.9467 53.0104 22.6L53.7304 20.64C54.2237 20.9467 54.7837 21.1933 55.4104 21.38C56.0504 21.5533 56.6837 21.64 57.3104 21.64C57.8704 21.64 58.2837 21.5533 58.5504 21.38C58.817 21.1933 58.9504 20.9533 58.9504 20.66C58.9504 20.1933 58.6104 19.9 57.9304 19.78L55.8304 19.4C54.9904 19.2533 54.3504 18.9533 53.9104 18.5C53.4704 18.0467 53.2504 17.4533 53.2504 16.72C53.2504 16.0533 53.437 15.48 53.8104 15C54.1837 14.52 54.697 14.1467 55.3504 13.88C56.0037 13.6133 56.757 13.48 57.6104 13.48C58.317 13.48 59.0037 13.5733 59.6704 13.76C60.337 13.9333 60.9104 14.2133 61.3904 14.6L60.6304 16.54C60.2304 16.2467 59.7504 16.0067 59.1904 15.82C58.6437 15.6333 58.1304 15.54 57.6504 15.54C57.0504 15.54 56.617 15.64 56.3504 15.84C56.0837 16.0267 55.9504 16.2667 55.9504 16.56C55.9504 17.0267 56.2637 17.32 56.8904 17.44L58.9904 17.82C59.857 17.9667 60.517 18.26 60.9704 18.7C61.4237 19.1267 61.6504 19.7133 61.6504 20.46C61.6504 21.4867 61.2504 22.2867 60.4504 22.86C59.6504 23.4333 58.597 23.72 57.2904 23.72ZM68.2941 23.72C67.2408 23.72 66.3208 23.5133 65.5341 23.1C64.7608 22.6733 64.1608 22.08 63.7341 21.32C63.3074 20.5467 63.0941 19.6333 63.0941 18.58C63.0941 17.54 63.3074 16.64 63.7341 15.88C64.1608 15.1067 64.7608 14.5133 65.5341 14.1C66.3208 13.6867 67.2408 13.48 68.2941 13.48C69.3474 13.48 70.2608 13.6867 71.0341 14.1C71.8208 14.5133 72.4274 15.1067 72.8541 15.88C73.2941 16.64 73.5141 17.54 73.5141 18.58C73.5141 19.6333 73.2941 20.5467 72.8541 21.32C72.4274 22.08 71.8208 22.6733 71.0341 23.1C70.2608 23.5133 69.3474 23.72 68.2941 23.72ZM68.2941 21.46C68.9341 21.46 69.4541 21.2267 69.8541 20.76C70.2674 20.2933 70.4741 19.5667 70.4741 18.58C70.4741 17.6067 70.2674 16.8933 69.8541 16.44C69.4541 15.9733 68.9341 15.74 68.2941 15.74C67.6541 15.74 67.1341 15.9733 66.7341 16.44C66.3341 16.8933 66.1341 17.6067 66.1341 18.58C66.1341 19.5667 66.3341 20.2933 66.7341 20.76C67.1341 21.2267 67.6541 21.46 68.2941 21.46ZM75.5515 23.5V13.68H78.5115V15.38C78.9781 14.2333 79.9781 13.6 81.5115 13.48L82.3915 13.42L82.5715 15.96L80.8715 16.14C79.3781 16.2867 78.6315 17.0467 78.6315 18.42V23.5H75.5515ZM89.3996 23.72C86.6396 23.72 85.2596 22.38 85.2596 19.7V15.94H83.3996V13.68H85.2596V10.8H88.2796V13.68H91.1796V15.94H88.2796V19.58C88.2796 20.14 88.4062 20.56 88.6596 20.84C88.9262 21.12 89.3462 21.26 89.9196 21.26C90.0929 21.26 90.2729 21.24 90.4596 21.2C90.6596 21.16 90.8729 21.1067 91.0996 21.04L91.5396 23.24C91.2596 23.3867 90.9262 23.5 90.5396 23.58C90.1529 23.6733 89.7729 23.72 89.3996 23.72ZM97.8679 23.72C96.7079 23.72 95.7079 23.5133 94.8679 23.1C94.0412 22.6733 93.4012 22.08 92.9479 21.32C92.5079 20.5467 92.2879 19.64 92.2879 18.6C92.2879 17.5867 92.5012 16.7 92.9279 15.94C93.3679 15.1667 93.9612 14.5667 94.7079 14.14C95.4679 13.7 96.3412 13.48 97.3279 13.48C98.7545 13.48 99.8879 13.9333 100.728 14.84C101.568 15.7333 101.988 16.9467 101.988 18.48V19.24H95.1679C95.2745 20.0133 95.5545 20.58 96.0079 20.94C96.4745 21.2867 97.1145 21.46 97.9279 21.46C98.4612 21.46 99.0012 21.38 99.5479 21.22C100.095 21.06 100.588 20.8133 101.028 20.48L101.828 22.5C101.335 22.8733 100.728 23.1733 100.008 23.4C99.3012 23.6133 98.5879 23.72 97.8679 23.72ZM97.4479 15.48C96.8079 15.48 96.2879 15.6733 95.8879 16.06C95.5012 16.4467 95.2612 16.9867 95.1679 17.68H99.4879C99.4079 16.2133 98.7279 15.48 97.4479 15.48ZM108.724 23.72C107.658 23.72 106.724 23.5133 105.924 23.1C105.138 22.6733 104.531 22.0733 104.104 21.3C103.678 20.5267 103.464 19.6133 103.464 18.56C103.464 17.5067 103.678 16.6 104.104 15.84C104.531 15.08 105.138 14.5 105.924 14.1C106.724 13.6867 107.658 13.48 108.724 13.48C109.351 13.48 109.984 13.5733 110.624 13.76C111.264 13.9467 111.784 14.2133 112.184 14.56L111.344 16.64C111.011 16.3733 110.638 16.1667 110.224 16.02C109.811 15.86 109.411 15.78 109.024 15.78C108.238 15.78 107.624 16.0267 107.184 16.52C106.758 17 106.544 17.6867 106.544 18.58C106.544 19.46 106.758 20.1533 107.184 20.66C107.624 21.1533 108.238 21.4 109.024 21.4C109.398 21.4 109.791 21.3267 110.204 21.18C110.631 21.0333 111.011 20.82 111.344 20.54L112.184 22.62C111.784 22.9667 111.264 23.24 110.624 23.44C109.984 23.6267 109.351 23.72 108.724 23.72ZM118.22 23.72C117.167 23.72 116.247 23.5133 115.46 23.1C114.687 22.6733 114.087 22.08 113.66 21.32C113.233 20.5467 113.02 19.6333 113.02 18.58C113.02 17.54 113.233 16.64 113.66 15.88C114.087 15.1067 114.687 14.5133 115.46 14.1C116.247 13.6867 117.167 13.48 118.22 13.48C119.273 13.48 120.187 13.6867 120.96 14.1C121.747 14.5133 122.353 15.1067 122.78 15.88C123.22 16.64 123.44 17.54 123.44 18.58C123.44 19.6333 123.22 20.5467 122.78 21.32C122.353 22.08 121.747 22.6733 120.96 23.1C120.187 23.5133 119.273 23.72 118.22 23.72ZM118.22 21.46C118.86 21.46 119.38 21.2267 119.78 20.76C120.193 20.2933 120.4 19.5667 120.4 18.58C120.4 17.6067 120.193 16.8933 119.78 16.44C119.38 15.9733 118.86 15.74 118.22 15.74C117.58 15.74 117.06 15.9733 116.66 16.44C116.26 16.8933 116.06 17.6067 116.06 18.58C116.06 19.5667 116.26 20.2933 116.66 20.76C117.06 21.2267 117.58 21.46 118.22 21.46ZM125.517 23.5V13.68H128.477V15.1C128.771 14.5933 129.171 14.2 129.677 13.92C130.197 13.6267 130.797 13.48 131.477 13.48C132.171 13.48 132.757 13.6333 133.237 13.94C133.731 14.2467 134.104 14.7133 134.357 15.34C134.664 14.7533 135.104 14.3 135.677 13.98C136.264 13.6467 136.911 13.48 137.617 13.48C138.737 13.48 139.571 13.82 140.117 14.5C140.664 15.1667 140.937 16.2 140.937 17.6V23.5H137.917V17.7C137.917 17.0467 137.811 16.5733 137.597 16.28C137.397 15.9733 137.051 15.82 136.557 15.82C135.984 15.82 135.537 16.02 135.217 16.42C134.897 16.82 134.737 17.3867 134.737 18.12V23.5H131.717V17.7C131.717 17.0467 131.611 16.5733 131.397 16.28C131.184 15.9733 130.837 15.82 130.357 15.82C129.784 15.82 129.337 16.02 129.017 16.42C128.697 16.82 128.537 17.3867 128.537 18.12V23.5H125.517Z" fill="#18A0FB"/>
<defs>
<linearGradient id="paint0_linear_616_3907" x1="21.962" y1="13.1617" x2="27.646" y2="12.504" gradientUnits="userSpaceOnUse">
<stop stop-color="#004AF7"/>
<stop offset="1" stop-color="#00D0FF"/>
</linearGradient>
<linearGradient id="paint1_linear_616_3907" x1="17.5343" y1="13.7222" x2="23.9577" y2="13.7661" gradientUnits="userSpaceOnUse">
<stop stop-color="#004AF7"/>
<stop offset="1" stop-color="#00D0FF"/>
</linearGradient>
<linearGradient id="paint2_linear_616_3907" x1="25.2042" y1="29.978" x2="18.9636" y2="11.685" gradientUnits="userSpaceOnUse">
<stop stop-color="#004AF7"/>
<stop offset="1" stop-color="#00D0FF"/>
</linearGradient>
</defs>
</svg>
