<svg width="1320" height="266" viewBox="0 0 1320 266" fill="none" xmlns="http://www.w3.org/2000/svg">
<g clip-path="url(#clip0_1129_4664)">
<rect width="1320" height="266" rx="6" fill="#1D1B29"/>
<circle cx="84" cy="266" r="237" fill="#004AF7"/>
<circle cx="1217.5" cy="77.5" r="85.5" fill="#004AF7"/>
<circle cx="261.5" cy="187.5" r="59.5" fill="#F6F6F7"/>
<path d="M1152.5 208.5C1152.5 223.964 1139.96 236.5 1124.5 236.5C1109.04 236.5 1096.5 223.964 1096.5 208.5C1096.5 193.036 1109.04 180.5 1124.5 180.5C1139.96 180.5 1152.5 193.036 1152.5 208.5Z" fill="#004AF7"/>
<path d="M1152.5 208.5C1152.5 223.964 1139.96 236.5 1124.5 236.5C1109.04 236.5 1096.5 223.964 1096.5 208.5C1096.5 193.036 1109.04 180.5 1124.5 180.5C1139.96 180.5 1152.5 193.036 1152.5 208.5Z" stroke="#004AF7"/>
<path d="M1152.5 208.5C1152.5 223.964 1139.96 236.5 1124.5 236.5C1109.04 236.5 1096.5 223.964 1096.5 208.5C1096.5 193.036 1109.04 180.5 1124.5 180.5C1139.96 180.5 1152.5 193.036 1152.5 208.5Z" stroke="#004AF7"/>
<path d="M1152.5 208.5C1152.5 223.964 1139.96 236.5 1124.5 236.5C1109.04 236.5 1096.5 223.964 1096.5 208.5C1096.5 193.036 1109.04 180.5 1124.5 180.5C1139.96 180.5 1152.5 193.036 1152.5 208.5Z" stroke="#004AF7"/>
<path d="M1152.5 208.5C1152.5 223.964 1139.96 236.5 1124.5 236.5C1109.04 236.5 1096.5 223.964 1096.5 208.5C1096.5 193.036 1109.04 180.5 1124.5 180.5C1139.96 180.5 1152.5 193.036 1152.5 208.5Z" stroke="#004AF7"/>
<path d="M1082.5 79C1082.5 86.4395 1076.25 92.5 1068.5 92.5C1060.75 92.5 1054.5 86.4395 1054.5 79C1054.5 71.5605 1060.75 65.5 1068.5 65.5C1076.25 65.5 1082.5 71.5605 1082.5 79Z" fill="#004AF7"/>
<path d="M1082.5 79C1082.5 86.4395 1076.25 92.5 1068.5 92.5C1060.75 92.5 1054.5 86.4395 1054.5 79C1054.5 71.5605 1060.75 65.5 1068.5 65.5C1076.25 65.5 1082.5 71.5605 1082.5 79Z" stroke="#004AF7"/>
<path d="M1082.5 79C1082.5 86.4395 1076.25 92.5 1068.5 92.5C1060.75 92.5 1054.5 86.4395 1054.5 79C1054.5 71.5605 1060.75 65.5 1068.5 65.5C1076.25 65.5 1082.5 71.5605 1082.5 79Z" stroke="#004AF7"/>
<path d="M1082.5 79C1082.5 86.4395 1076.25 92.5 1068.5 92.5C1060.75 92.5 1054.5 86.4395 1054.5 79C1054.5 71.5605 1060.75 65.5 1068.5 65.5C1076.25 65.5 1082.5 71.5605 1082.5 79Z" stroke="#004AF7"/>
<path d="M1082.5 79C1082.5 86.4395 1076.25 92.5 1068.5 92.5C1060.75 92.5 1054.5 86.4395 1054.5 79C1054.5 71.5605 1060.75 65.5 1068.5 65.5C1076.25 65.5 1082.5 71.5605 1082.5 79Z" stroke="#004AF7"/>
<circle cx="1116.5" cy="202.5" r="27" fill="#F6F6F7"/>
<circle cx="1116.5" cy="202.5" r="27" stroke="#004AF7" stroke-width="3"/>
<circle cx="1116.5" cy="202.5" r="27" stroke="#004AF7" stroke-width="3"/>
<circle cx="1116.5" cy="202.5" r="27" stroke="#004AF7" stroke-width="3"/>
<circle cx="1116.5" cy="202.5" r="27" stroke="#004AF7" stroke-width="3"/>
<path d="M1077.5 76C1077.5 82.8544 1071.73 88.5 1064.5 88.5C1057.27 88.5 1051.5 82.8544 1051.5 76C1051.5 69.1456 1057.27 63.5 1064.5 63.5C1071.73 63.5 1077.5 69.1456 1077.5 76Z" fill="#F6F6F7"/>
<path d="M1077.5 76C1077.5 82.8544 1071.73 88.5 1064.5 88.5C1057.27 88.5 1051.5 82.8544 1051.5 76C1051.5 69.1456 1057.27 63.5 1064.5 63.5C1071.73 63.5 1077.5 69.1456 1077.5 76Z" stroke="#004AF7" stroke-width="3"/>
<path d="M1077.5 76C1077.5 82.8544 1071.73 88.5 1064.5 88.5C1057.27 88.5 1051.5 82.8544 1051.5 76C1051.5 69.1456 1057.27 63.5 1064.5 63.5C1071.73 63.5 1077.5 69.1456 1077.5 76Z" stroke="#004AF7" stroke-width="3"/>
<path d="M1077.5 76C1077.5 82.8544 1071.73 88.5 1064.5 88.5C1057.27 88.5 1051.5 82.8544 1051.5 76C1051.5 69.1456 1057.27 63.5 1064.5 63.5C1071.73 63.5 1077.5 69.1456 1077.5 76Z" stroke="#004AF7" stroke-width="3"/>
<path d="M1077.5 76C1077.5 82.8544 1071.73 88.5 1064.5 88.5C1057.27 88.5 1051.5 82.8544 1051.5 76C1051.5 69.1456 1057.27 63.5 1064.5 63.5C1071.73 63.5 1077.5 69.1456 1077.5 76Z" stroke="#004AF7" stroke-width="3"/>
</g>
<defs>
<clipPath id="clip0_1129_4664">
<rect width="1320" height="266" rx="6" fill="white"/>
</clipPath>
</defs>
</svg>
